<?xml version="1.0" encoding="UTF-8"?>
<svg version="1.1" xmlns="http://www.w3.org/2000/svg" width="677" height="369">
<path d="M0 0 C223.41 0 446.82 0 677 0 C677 121.77 677 243.54 677 369 C453.59 369 230.18 369 0 369 C0 247.23 0 125.46 0 0 Z " fill="#FEFEFE" transform="translate(0,0)"/>
<path d="M0 0 C13.36078239 10.32967952 24.47787108 24.9690006 27.75 41.875 C27.17648827 50.40598702 20.70235135 59.15454162 16 66 C17.06645115 67.29633621 17.06645115 67.29633621 19.5625 67.0625 C20.366875 67.041875 21.17125 67.02125 22 67 C25.83727493 75.35977752 27.33259514 81.46428715 24.4375 90.3125 C20.32613256 100.7202973 13.77585667 109.06491077 6 117 C5.34773438 117.68835938 4.69546875 118.37671875 4.0234375 119.0859375 C-10.43073774 133.20526698 -29.70684155 138.32102799 -49.36010742 138.3828125 C-68.6712355 138.02783533 -86.24543066 129.38114212 -100 116 C-115.63114759 98.92454369 -123.16472839 77.31863453 -122.18798828 54.26953125 C-121.66716748 47.98180377 -119.8786832 41.99607601 -118 36 C-117.58427734 34.63101563 -117.58427734 34.63101563 -117.16015625 33.234375 C-110.6567399 14.65318544 -94.97751708 0.38488037 -78.125 -8.8125 C-51.75712459 -20.90477408 -23.22665316 -16.33275056 0 0 Z " fill="#F6F9F9" transform="translate(386,92)"/>
<path d="M0 0 C13.36078239 10.32967952 24.47787108 24.9690006 27.75 41.875 C27.03161531 51.70660762 19.20435071 61.89084815 13 69 C12.29875 69.83273438 11.5975 70.66546875 10.875 71.5234375 C-1.73333401 86.1018237 -20.53129627 97.62309738 -40.13720703 99.16845703 C-50.2168238 99.67895256 -59.56783585 99.88011725 -68.0625 93.8125 C-68.701875 93.214375 -69.34125 92.61625 -70 92 C-69.34 91.34 -68.68 90.68 -68 90 C-67.83318891 86.91652174 -67.83318891 86.91652174 -68 84 C-63.61787265 84.84462772 -59.66839582 85.67817979 -55.625 87.625 C-48.98718918 90.14279031 -41.55465695 90.01525599 -34.98828125 87.1875 C-30.11749411 84.27842477 -24.82628547 80.47885642 -23 75 C-23.99 75 -24.98 75 -26 75 C-26 74.34 -26 73.68 -26 73 C-24.1015625 71.4921875 -24.1015625 71.4921875 -21.625 69.875 C-20.81289063 69.33617187 -20.00078125 68.79734375 -19.1640625 68.2421875 C-17 67 -17 67 -15 67 C-14.01 70.96 -13.02 74.92 -12 79 C-13.65 79 -15.3 79 -17 79 C-18.90442291 80.94955364 -18.90442291 80.94955364 -20.3125 83.5 C-20.82425781 84.3353125 -21.33601563 85.170625 -21.86328125 86.03125 C-22.23839844 86.6809375 -22.61351562 87.330625 -23 88 C-12.247779 82.47379504 -3.52217187 76.62110255 5 68 C5.62261719 67.48179687 6.24523437 66.96359375 6.88671875 66.4296875 C8.20696397 65.04945654 8.20696397 65.04945654 7.93359375 63.08203125 C2.98714713 52.0508344 -11.59277805 44.80503652 -22 40 C-21.01 41.423125 -21.01 41.423125 -20 42.875 C-18 46 -18 46 -18 48 C-16.35 48 -14.7 48 -13 48 C-13.66 51.63 -14.32 55.26 -15 59 C-19.38762753 57.90309312 -22.14499723 56.29817473 -26 54 C-26 53.34 -26 52.68 -26 52 C-25.01 52 -24.02 52 -23 52 C-25.83855944 46.32288112 -30.22137842 42.30063138 -35.9375 39.625 C-36.618125 39.41875 -37.29875 39.2125 -38 39 C-38 38.34 -38 37.68 -38 37 C-48.49911686 37.29869465 -56.85187447 37.99837921 -64.875 45.1875 C-70.8271389 51.77490199 -71.16897271 58.29034133 -70.9375 66.8125 C-70.89294678 67.55419434 -70.84839355 68.29588867 -70.80249023 69.06005859 C-70.65130851 72.76337926 -70.64752079 74.55819857 -73.00390625 77.51171875 C-73.66261719 78.00285156 -74.32132812 78.49398437 -75 79 C-79.41637756 70.74329413 -80.25386034 62.93699856 -77.8125 53.875 C-76.27313863 49.18361296 -74.18990042 45.76244665 -71 42 C-70.34 42 -69.68 42 -69 42 C-69 41.34 -69 40.68 -69 40 C-72.3 40 -75.6 40 -79 40 C-78 36 -78 36 -75.734375 34.62109375 C-56.62109344 27.04082632 -39.19931989 25.32592167 -20 33 C-7.78988639 38.36687402 2.70888403 46.50393294 12 56 C12 56.66 12 57.32 12 58 C16.48998126 53.93457284 18.62305515 48.54437774 19.5 42.625 C18.44033274 34.94241234 15.7228574 26.51269781 10 21 C6.89850655 20.29295892 4.83464714 20.07508325 1.74072266 20.15771484 C0.51291328 20.14895325 0.51291328 20.14895325 -0.73970032 20.14001465 C-3.43966802 20.12961563 -6.13630818 20.16942344 -8.8359375 20.2109375 C-10.71773715 20.21638284 -12.59954624 20.21916118 -14.48135376 20.21939087 C-18.42423901 20.22711754 -22.36600972 20.25807465 -26.30859375 20.30712891 C-31.35139365 20.36930667 -36.39312314 20.3879667 -41.43626976 20.39092064 C-45.32264596 20.39563292 -49.20879652 20.41645274 -53.09508133 20.44279861 C-54.95372309 20.4548248 -56.81238937 20.46354672 -58.67106247 20.468853 C-61.27510191 20.48012535 -63.87814818 20.51133726 -66.48193359 20.54833984 C-67.62461952 20.54865707 -67.62461952 20.54865707 -68.79039001 20.54898071 C-74.66950425 20.66564634 -79.40517311 21.88406772 -84.07421875 25.69140625 C-87.92684558 30.1597071 -90.20721914 34.25548554 -91.98046875 39.8984375 C-93.2469471 42.50903272 -94.43155952 42.81614968 -97 44 C-97.33 44.99 -97.66 45.98 -98 47 C-98.66 47 -99.32 47 -100 47 C-100.89933268 38.68117275 -97.15742189 31.09738714 -92.25 24.625 C-87.92576713 19.54099537 -83.33474843 16.11158281 -77 14 C-74.39875197 13.90895615 -71.82488774 13.87394976 -69.22387695 13.88647461 C-68.43339966 13.88632858 -67.64292236 13.88618256 -66.82849121 13.8860321 C-64.21506 13.88672891 -61.60170001 13.89451045 -58.98828125 13.90234375 C-57.17652933 13.90420876 -55.3647769 13.90563227 -53.55302429 13.90663147 C-48.78382984 13.91045015 -44.01466582 13.92027492 -39.2454834 13.93133545 C-34.37915458 13.94156351 -29.51282084 13.94613208 -24.64648438 13.95117188 C-15.09764287 13.96189774 -5.54882397 13.9789664 4 14 C-0.07597162 8.77024947 -4.4671453 5.58932577 -10 2 C-10.66644531 1.54367188 -11.33289063 1.08734375 -12.01953125 0.6171875 C-26.89052504 -8.71018139 -45.61276057 -10.32246707 -62.41430664 -6.55737305 C-79.51327894 -2.24997245 -93.12224366 7.3646043 -103.21484375 21.93359375 C-107.75888508 29.7390039 -110.63226664 38.31144801 -113 47 C-113.20238281 47.639375 -113.40476562 48.27875 -113.61328125 48.9375 C-116.75215245 65.67814639 -112.56584635 83.25470375 -104.20703125 97.71484375 C-103 100 -103 100 -103 102 C-102.34 102 -101.68 102 -101 102 C-101 94.74 -101 87.48 -101 80 C-97 82 -97 82 -94 84 C-93.6903539 86.74215439 -93.54055881 89.31558889 -93.5 92.0625 C-93.26169265 98.48941425 -92.7918444 104.10610627 -90 110 C-89.54947266 110.96486328 -89.54947266 110.96486328 -89.08984375 111.94921875 C-85.8139946 118.27545376 -81.30511958 121.06738624 -75 124 C-75 124.66 -75 125.32 -75 126 C-74.27296875 126.1340625 -73.5459375 126.268125 -72.796875 126.40625 C-70.20192598 126.95713303 -67.76915041 127.67674823 -65.25 128.5 C-47.547491 133.86836442 -29.83006129 130.62255201 -13.4140625 122.76171875 C0.10068612 115.34828868 8.9464373 104.42920863 16 91 C16.40476562 90.31808594 16.80953125 89.63617188 17.2265625 88.93359375 C18.29876207 86.25309481 18.22739439 83.93852271 18.1875 81.0625 C18.18105469 80.04285156 18.17460937 79.02320313 18.16796875 77.97265625 C18.01221966 75.21625952 17.61837386 72.68621605 17 70 C18.32 69.34 19.64 68.68 21 68 C25.25686926 72.94346108 26.39502473 76.10616446 26.2734375 82.671875 C24.67929768 96.24483693 15.21021419 107.60118074 6 117 C5.34773438 117.68835938 4.69546875 118.37671875 4.0234375 119.0859375 C-10.43073774 133.20526698 -29.70684155 138.32102799 -49.36010742 138.3828125 C-68.6712355 138.02783533 -86.24543066 129.38114212 -100 116 C-115.63114759 98.92454369 -123.16472839 77.31863453 -122.18798828 54.26953125 C-121.66716748 47.98180377 -119.8786832 41.99607601 -118 36 C-117.58427734 34.63101563 -117.58427734 34.63101563 -117.16015625 33.234375 C-110.6567399 14.65318544 -94.97751708 0.38488037 -78.125 -8.8125 C-51.75712459 -20.90477408 -23.22665316 -16.33275056 0 0 Z " fill="#23808B" transform="translate(386,92)"/>
<path d="M0 0 C0 0.66 0 1.32 0 2 C1.485 2.2475 1.485 2.2475 3 2.5 C8.16363636 3.94666295 11.81274216 7.81931115 15 12 C15 12.99 15 13.98 15 15 C14.01 15 13.02 15 12 15 C12 15.66 12 16.32 12 17 C12.70125 17.268125 13.4025 17.53625 14.125 17.8125 C17.1649824 19.0681449 20.0727774 20.50235123 23 22 C23.144375 20.741875 23.28875 19.48375 23.4375 18.1875 C23.73748686 15.57332877 24.15813297 13.52560108 25 11 C24.2575 11.12375 23.515 11.2475 22.75 11.375 C20 11 20 11 17.6875 8.125 C16 5 16 5 16 3 C27.23206305 5.3924798 40.50642981 15.71789967 47 25 C47.01240589 28.02703627 45.8525014 29.17821594 43.91796875 31.515625 C35.88978701 39.55529198 27.39807833 46.18960551 17 51 C16.34 51 15.68 51 15 51 C16.65167557 47.4213696 18.78286492 44.25179812 21 41 C22.65 41.33 24.3 41.66 26 42 C25.7834375 41.38511719 25.566875 40.77023438 25.34375 40.13671875 C25.0653125 39.32847656 24.786875 38.52023438 24.5 37.6875 C24.2215625 36.88699219 23.943125 36.08648437 23.65625 35.26171875 C23 33 23 33 23 30 C22.37351562 30.433125 21.74703125 30.86625 21.1015625 31.3125 C20.28429687 31.869375 19.46703125 32.42625 18.625 33 C17.81289063 33.556875 17.00078125 34.11375 16.1640625 34.6875 C14 36 14 36 12 36 C12 36.66 12 37.32 12 38 C12.99 38 13.98 38 15 38 C14.30546756 42.92787303 11.09437256 45.0841684 7.45703125 48.16015625 C0.8958346 53.07323037 -5.91806807 54.01456492 -14 53 C-21.5841384 50.97434777 -27.07563333 46.49902565 -31.3203125 39.96875 C-35.17481232 32.5292958 -35.11121873 24.25331283 -33 16.25 C-30.42302696 9.61489651 -25.07798153 4.79822712 -18.875 1.5 C-12.84705984 -0.91541363 -6.37324384 -0.32636811 0 0 Z " fill="#F9FBFB" transform="translate(348,129)"/>
<path d="M0 0 C0.66 0.33 1.32 0.66 2 1 C1.67 1.66 1.34 2.32 1 3 C4.3 3 7.6 3 11 3 C11 3.66 11 4.32 11 5 C10.13375 5.7734375 10.13375 5.7734375 9.25 6.5625 C3.71903515 12.55437859 1.70334477 20.56087887 1.76953125 28.54296875 C2.14020403 32.49471758 3.08625852 38.08625852 6 41 C7.41898766 38.35122304 8.31911019 35.91985181 9 33 C9.47179687 33.99580078 9.47179687 33.99580078 9.953125 35.01171875 C12.25301049 39.75696442 14.44142868 44.04603186 18 48 C15.03 47.505 15.03 47.505 12 47 C12.20625 47.94875 12.4125 48.8975 12.625 49.875 C12.74875 50.90625 12.8725 51.9375 13 53 C12.34 53.66 11.68 54.32 11 55 C12.32 56.32 13.64 57.64 15 59 C-0.17842973 54.5211191 -12.2331904 45.99318018 -22.34375 33.84765625 C-24.05700993 31.78193605 -24.05700993 31.78193605 -27 30 C-26.44821421 21.32289796 -21.09428015 16.58136789 -15 11 C-10.24709248 6.99013082 -5.17129317 3.44752878 0 0 Z " fill="#2B848E" transform="translate(306,129)"/>
<path d="M0 0 C0 0.66 0 1.32 0 2 C-0.86625 2.7734375 -0.86625 2.7734375 -1.75 3.5625 C-7.27569863 9.54867352 -9.3326269 17.58723228 -9.21484375 25.5703125 C-8.61642037 32.33793691 -5.77691399 37.8390194 -1.98828125 43.37109375 C-1 45 -1 45 -1 47 C-11.7230919 44.93786694 -20.94432153 35.91759374 -28 28 C-30 25 -30 25 -29.8671875 23.109375 C-26.25260725 14.31715276 -16.65664084 8.02322043 -9 3 C-7.72382813 2.14728516 -7.72382813 2.14728516 -6.421875 1.27734375 C-4 0 -4 0 0 0 Z " fill="#F4F8F8" transform="translate(317,132)"/>
<path d="M0 0 C0 1.32 0 2.64 0 4 C-0.66 4 -1.32 4 -2 4 C-2.24878906 4.56976563 -2.49757813 5.13953125 -2.75390625 5.7265625 C-8.97766154 17.08150162 -21.38220723 22.40964519 -33.078125 26.23828125 C-48.79166977 30.33472674 -63.78064906 27.31294672 -77.75 19.5 C-80.39343049 17.750671 -80.89745556 17.28840625 -82 14.1875 C-82 13.465625 -82 12.74375 -82 12 C-77.61480927 10.68137622 -77.61480927 10.68137622 -74.859375 12.109375 C-74.16328125 12.65078125 -73.4671875 13.1921875 -72.75 13.75 C-61.54620456 21.67912288 -47.81898466 22.16763278 -34.53515625 19.99609375 C-25.26260059 17.3833847 -14.6387352 11.46995657 -9.3125 3.3125 C-6.48998983 -0.98102524 -5.00466806 -1.18531612 0 0 Z " fill="#1F7F8C" transform="translate(388,182)"/>
<path d="M0 0 C4.38212735 0.84462772 8.33160418 1.67817979 12.375 3.625 C22.70886378 7.54474144 34.18085855 4.10618642 44 0 C44 1.65 44 3.3 44 5 C45.98 5 47.96 5 50 5 C49.4296875 7.359375 49.4296875 7.359375 48 10 C44.8828125 11.328125 44.8828125 11.328125 41.125 12.25 C39.89007813 12.56453125 38.65515625 12.8790625 37.3828125 13.203125 C35.70832031 13.59757813 35.70832031 13.59757813 34 14 C33.35297119 14.17724609 32.70594238 14.35449219 32.03930664 14.53710938 C23.27648272 16.52613298 10.95081452 16.35835934 3 12 C-0.0625 9.8125 -0.0625 9.8125 -2 8 C-1.34 7.34 -0.68 6.68 0 6 C0.16681109 2.91652174 0.16681109 2.91652174 0 0 Z " fill="#117A87" transform="translate(318,176)"/>
<path d="M0 0 C0.78072372 -0.00029205 1.56144745 -0.00058411 2.36582947 -0.00088501 C4.94688015 0.00050854 7.52764231 0.01607086 10.10864258 0.03173828 C11.89797305 0.03546832 13.68730555 0.03831534 15.47663879 0.04031372 C20.18669267 0.04795088 24.89662326 0.06760009 29.60662842 0.08972168 C34.41262138 0.11017832 39.21863426 0.11931505 44.0246582 0.12939453 C53.45505092 0.15084589 62.88535212 0.18498286 72.31567383 0.22705078 C71.98567383 1.54705078 71.65567383 2.86705078 71.31567383 4.22705078 C70.35180756 4.23735825 69.38794128 4.24766571 68.39486694 4.25828552 C59.30209785 4.35613021 50.20939549 4.45887449 41.11673546 4.56639004 C36.4423489 4.62150522 31.76795596 4.67490664 27.09350586 4.72436523 C22.58066153 4.77217743 18.06789034 4.82452568 13.55513382 4.87999153 C11.83521984 4.90033891 10.11528587 4.91906423 8.39533615 4.9361248 C5.98247828 4.96033821 3.56975655 4.99036851 1.15698242 5.02172852 C0.44919647 5.02748398 -0.25858948 5.03323944 -0.98782349 5.03916931 C-4.98011968 5.09797564 -8.76490698 5.46630365 -12.68432617 6.22705078 C-9.99972601 0.03181965 -6.17908106 -0.06026395 0 0 Z " fill="#0D7583" transform="translate(317.684326171875,106.77294921875)"/>
<path d="M0 0 C3.30901116 1.0269345 4.0219638 2.03922107 5.75 5.125 C8.51474199 12.54856136 6.83520295 18.3308733 4.16796875 25.484375 C3.02264878 27.95121802 1.71400567 29.89801024 0 32 C0 31.01 0 30.02 0 29 C-3.27773504 29.75150023 -3.27773504 29.75150023 -5 33 C-5.66 33 -6.32 33 -7 33 C-7 33.66 -7 34.32 -7 35 C-7.66 35 -8.32 35 -9 35 C-7.64993472 31.33647335 -5.93865424 28.24233759 -3.875 24.9375 C-0.13066879 18.20499205 0.12737825 11.71203602 -1.65234375 4.2734375 C-1.76707031 3.52320313 -1.88179688 2.77296875 -2 2 C-1.34 1.34 -0.68 0.68 0 0 Z " fill="#26838F" transform="translate(405,160)"/>
<path d="M0 0 C0.66 0.33 1.32 0.66 2 1 C1.195625 1.61875 0.39125 2.2375 -0.4375 2.875 C-3.03874519 4.74164041 -3.03874519 4.74164041 -4 7 C-2.02 6.67 -0.04 6.34 2 6 C0 8 0 8 -2.1875 8.625 C-8.35659274 11.64100089 -11.86595256 17.06843412 -14.1875 23.375 C-14.44917969 24.20773438 -14.71085937 25.04046875 -14.98046875 25.8984375 C-16.2469471 28.50903272 -17.43155952 28.81614968 -20 30 C-20.33 30.99 -20.66 31.98 -21 33 C-21.66 33 -22.32 33 -23 33 C-23.89933268 24.68117275 -20.15742189 17.09738714 -15.25 10.625 C-10.92576713 5.54099537 -6.33474843 2.11158281 0 0 Z " fill="#2B858F" transform="translate(309,106)"/>
<path d="M0 0 C0 2 0 4 0 6 C0.66 6.33 1.32 6.66 2 7 C0.55928231 11.61684532 -0.97907128 16.06776185 -3.0625 20.4375 C-5.23417386 25.14695367 -6.19069252 29.89923313 -7 35 C-7.33 35 -7.66 35 -8 35 C-8.33 32.03 -8.66 29.06 -9 26 C-12.65601213 35.13152797 -13.73400343 43.26452556 -14 53 C-14.33 53 -14.66 53 -15 53 C-15.87795047 33.29488955 -12.10316661 15.97889973 0 0 Z " fill="#2D8690" transform="translate(279,108)"/>
<path d="M0 0 C0.99 3.96 1.98 7.92 3 12 C1.35 12 -0.3 12 -2 12 C-3.90442291 13.94955364 -3.90442291 13.94955364 -5.3125 16.5 C-5.82425781 17.3353125 -6.33601563 18.170625 -6.86328125 19.03125 C-7.23839844 19.6809375 -7.61351562 20.330625 -8 21 C-7.09507812 20.44119141 -7.09507812 20.44119141 -6.171875 19.87109375 C-5.37265625 19.39800781 -4.5734375 18.92492187 -3.75 18.4375 C-2.96109375 17.96183594 -2.1721875 17.48617187 -1.359375 16.99609375 C1.30844625 15.86977849 2.34501768 15.9830687 5 17 C-0.15709623 21.20710482 -2.28207197 22.12440607 -9 22 C-9 20.35 -9 18.7 -9 17 C-9.7425 17.515625 -10.485 18.03125 -11.25 18.5625 C-14 20 -14 20 -16.171875 19.58984375 C-16.77515625 19.39519531 -17.3784375 19.20054687 -18 19 C-17.36191406 18.45730469 -16.72382813 17.91460937 -16.06640625 17.35546875 C-15.24011719 16.64003906 -14.41382813 15.92460937 -13.5625 15.1875 C-12.73878906 14.47980469 -11.91507812 13.77210938 -11.06640625 13.04296875 C-8.77835241 11.08890314 -8.77835241 11.08890314 -8 8 C-8.99 8 -9.98 8 -11 8 C-11 7.34 -11 6.68 -11 6 C-9.1015625 4.4921875 -9.1015625 4.4921875 -6.625 2.875 C-5.81289063 2.33617187 -5.00078125 1.79734375 -4.1640625 1.2421875 C-2 0 -2 0 0 0 Z " fill="#2E8691" transform="translate(371,159)"/>
<path d="M0 0 C0.33 0.66 0.66 1.32 1 2 C0.67 2.99 0.34 3.98 0 5 C0.66 5 1.32 5 2 5 C2 4.34 2 3.68 2 3 C2.99 3.33 3.98 3.66 5 4 C-2.63585599 13.59376778 -12.37464521 20.87487411 -24 25 C-23.61479436 22.46089803 -23.29902057 21.27248877 -21.37109375 19.515625 C-20.73300781 19.09796875 -20.09492188 18.6803125 -19.4375 18.25 C-18.79683594 17.82203125 -18.15617187 17.3940625 -17.49609375 16.953125 C-17.00238281 16.63859375 -16.50867188 16.3240625 -16 16 C-16.33 15.34 -16.66 14.68 -17 14 C-15.91332031 13.23816406 -15.91332031 13.23816406 -14.8046875 12.4609375 C-9.41946612 8.62665988 -4.49152425 4.85570189 0 0 Z " fill="#20808E" transform="translate(391,160)"/>
<path d="M0 0 C2 2 2 2 2.13525391 5.43994141 C2.09290249 6.91082326 2.03923454 8.38140629 1.9765625 9.8515625 C1.95153656 10.62559418 1.92651062 11.39962585 1.90072632 12.19711304 C1.81844085 14.67351533 1.72188604 17.14913007 1.625 19.625 C1.56676906 21.30205098 1.5094656 22.97913445 1.453125 24.65625 C1.31284966 28.77128769 1.15977348 32.88567508 1 37 C-0.32 37 -1.64 37 -3 37 C-5.72198308 34.27801692 -4.30868814 26.46485744 -4.33007812 22.80419922 C-4.25039027 14.61361636 -2.93895155 7.68850718 0 0 Z " fill="#137887" transform="translate(269,132)"/>
<path d="M0 0 C0.495 1.98 0.495 1.98 1 4 C-6.27154293 6.62801695 -12.73273159 7.44291246 -20.4375 7.3125 C-21.90606445 7.31733398 -21.90606445 7.31733398 -23.40429688 7.32226562 C-30.5981817 7.26787887 -30.5981817 7.26787887 -34 5 C-31.63860115 2.63860115 -30.93832463 2.68931522 -27.7109375 2.4375 C-26.42123047 2.32535156 -26.42123047 2.32535156 -25.10546875 2.2109375 C-23.75388672 2.10652344 -23.75388672 2.10652344 -22.375 2 C-14.91159544 1.41230035 -14.91159544 1.41230035 -7.6015625 -0.125 C-4.17478893 -0.95753501 -3.16959343 -0.99055244 0 0 Z " fill="#127986" transform="translate(365,222)"/>
<path d="M0 0 C3.95573863 0.4448495 6.57173578 1.77929702 9.875 3.9375 C13.9132999 6.45841476 17.3629389 7.99194324 22 9 C22 9.33 22 9.66 22 10 C21.195625 10.12375 20.39125 10.2475 19.5625 10.375 C18.716875 10.58125 17.87125 10.7875 17 11 C16.67 11.66 16.34 12.32 16 13 C17.32 13.33 18.64 13.66 20 14 C18 15 18 15 15.390625 14.14453125 C3.66867516 9.17290824 3.66867516 9.17290824 0 6 C-0.9375 3.3125 -0.9375 3.3125 -1 1 C-0.67 0.67 -0.34 0.34 0 0 Z " fill="#2D8592" transform="translate(307,193)"/>
<path d="M0 0 C3.30095737 3.30095737 3.83608186 6.98006492 4.5625 11.5 C4.44781494 18.03704843 0.29675095 24.50292884 -3 30 C-3.66 30.33 -4.32 30.66 -5 31 C-5.33 29.68 -5.66 28.36 -6 27 C-6.66 27 -7.32 27 -8 27 C-7.06783608 24.13692509 -6.14128013 21.32411323 -4.9375 18.5625 C-3.78274104 15.40615886 -3.39163242 12.32887558 -3 9 C-2.34 9.33 -1.68 9.66 -1 10 C-0.66666667 11.66666667 -0.33333333 13.33333333 0 15 C0.66 15.33 1.32 15.66 2 16 C1.50130596 10.63108121 0.97772468 5.30764827 0 0 Z " fill="#3F8B94" transform="translate(409,122)"/>
<path d="M0 0 C0.33 0 0.66 0 1 0 C1.0501123 0.69037354 1.10022461 1.38074707 1.15185547 2.09204102 C1.38534702 5.24947159 1.63007844 8.40593632 1.875 11.5625 C1.95363281 12.64853516 2.03226562 13.73457031 2.11328125 14.85351562 C2.56080534 20.51641658 3.26035563 25.59678251 5 31 C4.875 33.25 4.875 33.25 4 35 C2.68791288 36.02771843 1.35585444 37.03075466 0 38 C-0.6987693 36.23358317 -1.38366583 34.46167336 -2.0625 32.6875 C-2.44535156 31.70136719 -2.82820313 30.71523437 -3.22265625 29.69921875 C-4 27 -4 27 -3 24 C-2.34 24 -1.68 24 -1 24 C-0.67 16.08 -0.34 8.16 0 0 Z " fill="#338A93" transform="translate(270,145)"/>
<path d="M0 0 C0.99 0.99 1.98 1.98 3 3 C2.67 3.99 2.34 4.98 2 6 C1.90503453 7.93561978 1.87012467 9.87455816 1.875 11.8125 C1.87757813 12.88113281 1.88015625 13.94976562 1.8828125 15.05078125 C1.92061385 18.11510066 1.92061385 18.11510066 2.75 21.5 C3 24 3 24 1.0625 26.375 C0.381875 26.91125 -0.29875 27.4475 -1 28 C-2.6168074 23.0078656 -3.29618935 18.73846231 -3.3125 13.4375 C-3.32925781 12.17808594 -3.34601563 10.91867188 -3.36328125 9.62109375 C-2.97626955 5.76346101 -1.94131397 3.3243081 0 0 Z " fill="#167986" transform="translate(312,143)"/>
<path d="M0 0 C0.66 0.33 1.32 0.66 2 1 C0 4 0 4 -2.125 4.6875 C-2.74375 4.790625 -3.3625 4.89375 -4 5 C-3.67 6.32 -3.34 7.64 -3 9 C-11.261959 12.62870159 -11.261959 12.62870159 -16 11 C-16 10.01 -16 9.02 -16 8 C-16.804375 8.165 -17.60875 8.33 -18.4375 8.5 C-22.60174676 9.08445568 -26.80672789 9.49480611 -31 9 C-31.66 8.34 -32.32 7.68 -33 7 C-32.44054687 7.02320313 -31.88109375 7.04640625 -31.3046875 7.0703125 C-20.86228108 7.30535059 -10.55872502 6.85591613 -1.671875 0.92578125 C-1.12015625 0.62027344 -0.5684375 0.31476563 0 0 Z " fill="#2D8792" transform="translate(366,196)"/>
<path d="M0 0 C0.99 0 1.98 0 3 0 C2.79503906 1.02738281 2.59007812 2.05476562 2.37890625 3.11328125 C0.82280741 11.0638987 -0.50221524 18.89812397 -1 27 C-1.33 27 -1.66 27 -2 27 C-2.02712153 25.083412 -2.04645097 23.1667127 -2.0625 21.25 C-2.07410156 20.18265625 -2.08570313 19.1153125 -2.09765625 18.015625 C-2.01510087 15.46631499 -1.74617558 13.42066409 -1 11 C-1.66 10.67 -2.32 10.34 -3 10 C-5.45153075 14.73898266 -5.23154206 19.12062333 -5.125 24.3125 C-5.11597656 25.14845703 -5.10695313 25.98441406 -5.09765625 26.84570312 C-5.07420989 28.89725969 -5.03834266 30.94866777 -5 33 C-8.19385391 29.80614609 -8.08098445 26.16080927 -8.25 21.8125 C-8.12441162 13.42598703 -5.49043674 6.31400225 0 0 Z " fill="#48929A" transform="translate(315,134)"/>
<path d="M0 0 C0.99 3.96 1.98 7.92 3 12 C0.03 11.67 -2.94 11.34 -6 11 C-6 11.66 -6 12.32 -6 13 C-6.66 12.67 -7.32 12.34 -8 12 C-7.67 10.68 -7.34 9.36 -7 8 C-8.32 8 -9.64 8 -11 8 C-11 7.34 -11 6.68 -11 6 C-9.1015625 4.4921875 -9.1015625 4.4921875 -6.625 2.875 C-5.81289063 2.33617187 -5.00078125 1.79734375 -4.1640625 1.2421875 C-2 0 -2 0 0 0 Z " fill="#1E7F8A" transform="translate(371,159)"/>
<path d="M0 0 C4.9987005 0.48207052 7.87567176 1.94071339 11.875 4.9375 C12.84179688 5.64777344 13.80859375 6.35804688 14.8046875 7.08984375 C15.52914063 7.72019531 16.25359375 8.35054687 17 9 C17 9.66 17 10.32 17 11 C8.47139534 12.06186185 8.47139534 12.06186185 5.03515625 9.58203125 C2.37062892 6.52661971 0.78923021 4.00822531 0 0 Z " fill="#26828D" transform="translate(292,167)"/>
<path d="M0 0 C0.59578358 4.00026118 0.63996562 5.98632012 -1.55859375 9.46875 C-3.31585008 11.70332947 -5.11154551 13.8754887 -7 16 C-8.32 15.67 -9.64 15.34 -11 15 C-11 15.66 -11 16.32 -11 17 C-11.66 17 -12.32 17 -13 17 C-12.8125 14.6875 -12.8125 14.6875 -12 12 C-11.175 11.525625 -10.35 11.05125 -9.5 10.5625 C-6.65646168 9.18556314 -6.65646168 9.18556314 -6.1875 5.8125 C-6.125625 4.884375 -6.06375 3.95625 -6 3 C-5.01 3 -4.02 3 -3 3 C-3 2.34 -3 1.68 -3 1 C-1 0 -1 0 0 0 Z " fill="#177C89" transform="translate(404,148)"/>
<path d="M0 0 C1.98 0.99 1.98 0.99 4 2 C4.33 8.93 4.66 15.86 5 23 C3.68 23.33 2.36 23.66 1 24 C0.3533402 15.98603754 -0.16677223 8.04212755 0 0 Z " fill="#107784" transform="translate(286,173)"/>
<path d="M0 0 C3.625 0.375 3.625 0.375 7 1 C6.34 4.63 5.68 8.26 5 12 C-0.125 10.71875 -0.125 10.71875 -2 8 C-2.3125 4.9375 -2.3125 4.9375 -2 2 C-1.34 1.34 -0.68 0.68 0 0 Z " fill="#1E7C87" transform="translate(366,139)"/>
<path d="M0 0 C0.33 0.66 0.66 1.32 1 2 C0.67 2.99 0.34 3.98 0 5 C0.66 5 1.32 5 2 5 C2 4.34 2 3.68 2 3 C2.99 3.33 3.98 3.66 5 4 C-1.15034169 11.48291572 -1.15034169 11.48291572 -5 14 C-5 12.68 -5 11.36 -5 10 C-7.31 10.66 -9.62 11.32 -12 12 C-8 8 -4 4 0 0 Z " fill="#2E8792" transform="translate(391,160)"/>
<path d="M0 0 C1.41750563 0.11509661 2.83401169 0.24253658 4.25 0.375 C5.03890625 0.44460937 5.8278125 0.51421875 6.640625 0.5859375 C9.085877 1.01507113 10.84836903 1.78600638 13 3 C13 3.66 13 4.32 13 5 C14.32 5.66 15.64 6.32 17 7 C16 8 16 8 13.4375 8.0625 C12.633125 8.041875 11.82875 8.02125 11 8 C11 7.01 11 6.02 11 5 C10.07767578 5.14308594 10.07767578 5.14308594 9.13671875 5.2890625 C8.32847656 5.39992187 7.52023437 5.51078125 6.6875 5.625 C5.88699219 5.74101562 5.08648437 5.85703125 4.26171875 5.9765625 C2 6 2 6 -1 4 C-0.67 2.68 -0.34 1.36 0 0 Z " fill="#157881" transform="translate(305,217)"/>
<path d="M0 0 C1.41764994 0.93601246 2.83407568 1.8738792 4.25 2.8125 C5.03890625 3.33457031 5.8278125 3.85664063 6.640625 4.39453125 C8.81092481 5.87134122 10.91413768 7.40689873 13 9 C12.030625 9.12375 11.06125 9.2475 10.0625 9.375 C9.051875 9.58125 8.04125 9.7875 7 10 C6.67 10.66 6.34 11.32 6 12 C0.25 10.375 0.25 10.375 -2 7 C-1.67 6.01 -1.34 5.02 -1 4 C-0.34 4 0.32 4 1 4 C0.67 2.68 0.34 1.36 0 0 Z " fill="#328A94" transform="translate(298,208)"/>
<path d="M0 0 C0 1.32 0 2.64 0 4 C-0.66 4 -1.32 4 -2 4 C-2.268125 4.61875 -2.53625 5.2375 -2.8125 5.875 C-4 8 -4 8 -7 10 C-7.66 9.01 -8.32 8.02 -9 7 C-9.99 7 -10.98 7 -12 7 C-11.21366078 5.85050412 -10.42073742 4.70551011 -9.625 3.5625 C-9.18414062 2.92441406 -8.74328125 2.28632813 -8.2890625 1.62890625 C-5.70336501 -1.63847512 -3.75298661 -0.88886525 0 0 Z " fill="#2A838E" transform="translate(388,182)"/>
<path d="M0 0 C0.99 0.33 1.98 0.66 3 1 C2.67 2.32 2.34 3.64 2 5 C1.01 5 0.02 5 -1 5 C-0.67 7.31 -0.34 9.62 0 12 C-0.99 12.33 -1.98 12.66 -3 13 C-3.99 12.34 -4.98 11.68 -6 11 C-6.3125 8 -6.3125 8 -6 5 C-5.34 4.34 -4.68 3.68 -4 3 C-3.01 3 -2.02 3 -1 3 C-0.67 2.01 -0.34 1.02 0 0 Z " fill="#187C87" transform="translate(286,147)"/>
<path d="M0 0 C0.33 0 0.66 0 1 0 C0.44191232 10.29575539 0.44191232 10.29575539 -1.5 15.25 C-3.85855442 21.5433135 -3.74605625 28.35367902 -4 35 C-4.33 35 -4.66 35 -5 35 C-5.52510259 23.21436413 -5.41075096 10.82150191 0 0 Z " fill="#4F929A" transform="translate(269,126)"/>
<path d="M0 0 C3.875 1.75 3.875 1.75 5 4 C5.06950541 5.54023996 5.08452357 7.08334988 5.0625 8.625 C5.05347656 9.44226563 5.04445313 10.25953125 5.03515625 11.1015625 C5.02355469 11.72804687 5.01195312 12.35453125 5 13 C4.34 13 3.68 13 3 13 C3 11.68 3 10.36 3 9 C1.68 8.67 0.36 8.34 -1 8 C-1.625 5.125 -1.625 5.125 -2 2 C-1.34 1.34 -0.68 0.68 0 0 Z " fill="#157B86" transform="translate(273,179)"/>
<path d="M0 0 C0.66 0 1.32 0 2 0 C4.27141454 5.39460953 4.20413361 10.26157749 4 16 C3.01 15.67 2.02 15.34 1 15 C-0.81177431 10.7725266 -1.45438289 6.54680927 -2 2 C-1.34 2 -0.68 2 0 2 C0 1.34 0 0.68 0 0 Z " fill="#0F7785" transform="translate(407,122)"/>
<path d="M0 0 C9.9 0.33 19.8 0.66 30 1 C25.49215407 3.25392297 25.49215407 3.25392297 21.953125 3.265625 C21.19 3.26820313 20.426875 3.27078125 19.640625 3.2734375 C18.85171875 3.26570312 18.0628125 3.25796875 17.25 3.25 C16.4765625 3.25773438 15.703125 3.26546875 14.90625 3.2734375 C9.62586154 3.25571808 5.07459428 2.45981479 0 1 C0 0.67 0 0.34 0 0 Z " fill="#458F98" transform="translate(322,188)"/>
<path d="M0 0 C3.60296594 -0.41176754 4.78402067 -0.1535853 7.8125 2 C8.534375 2.66 9.25625 3.32 10 4 C9.67 5.65 9.34 7.3 9 9 C5.37 8.01 1.74 7.02 -2 6 C2 3 2 3 4 3 C4 2.34 4 1.68 4 1 C2.68 0.67 1.36 0.34 0 0 Z " fill="#358A93" transform="translate(356,79)"/>
<path d="M0 0 C1.32 1.32 2.64 2.64 4 4 C3 6 3 6 1 7 C1 9.31 1 11.62 1 14 C-1.475 13.01 -1.475 13.01 -4 12 C-4 11.34 -4 10.68 -4 10 C-3.01 10 -2.02 10 -1 10 C-1.474375 9.21625 -1.94875 8.4325 -2.4375 7.625 C-3.33898023 6.11051322 -4.21179485 4.5764103 -5 3 C-3.35 2.01 -1.7 1.02 0 0 Z " fill="#368B93" transform="translate(364,134)"/>
<path d="M0 0 C-3 2 -3 2 -6.25 3.625 C-10.21599601 5.83583182 -12.7763187 8.90005078 -15.6171875 12.390625 C-16.07351563 12.92171875 -16.52984375 13.4528125 -17 14 C-17.33 14 -17.66 14 -18 14 C-18 12.02 -18 10.04 -18 8 C-16.35 7.67 -14.7 7.34 -13 7 C-13 6.01 -13 5.02 -13 4 C-8.9663191 0.25443916 -5.34212498 -0.14839236 0 0 Z " fill="#26828A" transform="translate(334,129)"/>
<path d="M0 0 C0.66 0.33 1.32 0.66 2 1 C1.34 2.98 0.68 4.96 0 7 C-4.75 8 -4.75 8 -7 8 C-7.99 8.495 -7.99 8.495 -9 9 C-7.73090537 5.08695821 -6.53743024 3.14389712 -3 1 C-2.01 0.67 -1.02 0.34 0 0 Z " fill="#1B7A84" transform="translate(299,90)"/>
<path d="M0 0 C-0.4979837 3.73487777 -0.87491756 5.81237635 -3 9 C-3.66 9 -4.32 9 -5 9 C-5 8.34 -5 7.68 -5 7 C-7.475 8.485 -7.475 8.485 -10 10 C-9.67 8.68 -9.34 7.36 -9 6 C-8.34 6 -7.68 6 -7 6 C-7 5.34 -7 4.68 -7 4 C-3.58823529 0 -3.58823529 0 0 0 Z " fill="#157784" transform="translate(405,189)"/>
<path d="M0 0 C5.48780488 0.48780488 5.48780488 0.48780488 7.875 2.875 C9 5 9 5 9 8 C6.6875 8.3125 6.6875 8.3125 4 8 C2.02493835 5.39009711 1.0343299 3.10298971 0 0 Z " fill="#157887" transform="translate(292,167)"/>
<path d="M0 0 C0.66 0.33 1.32 0.66 2 1 C-4 7 -10 13 -16 19 C-14.89961924 11.18910051 -5.96348973 4.58729979 0 0 Z " fill="#D9E6E8" transform="translate(303,138)"/>
<path d="M0 0 C1.32 0.33 2.64 0.66 4 1 C2.75 4.4375 2.75 4.4375 1 8 C-1.1875 8.9375 -1.1875 8.9375 -3 9 C-3.75 7.3125 -3.75 7.3125 -4 5 C-2.0625 2.25 -2.0625 2.25 0 0 Z " fill="#107680" transform="translate(282,106)"/>
<path d="M0 0 C0.33 0.66 0.66 1.32 1 2 C-0.38912907 3.7553265 -1.78661773 5.50403907 -3.1875 7.25 C-3.96480469 8.22453125 -4.74210937 9.1990625 -5.54296875 10.203125 C-7.88358976 12.86748851 -10.04156259 15.04384826 -13 17 C-13.99 16.67 -14.98 16.34 -16 16 C-15.58637207 15.62190186 -15.17274414 15.24380371 -14.74658203 14.85424805 C-12.86972107 13.13524158 -10.99733198 11.41143776 -9.125 9.6875 C-8.47402344 9.09259766 -7.82304687 8.49769531 -7.15234375 7.88476562 C-6.52714844 7.30791016 -5.90195312 6.73105469 -5.2578125 6.13671875 C-4.6817627 5.60780029 -4.10571289 5.07888184 -3.51220703 4.53393555 C-1.77726107 2.87076805 -1.77726107 2.87076805 0 0 Z " fill="#43919B" transform="translate(395,195)"/>
<path d="M0 0 C2.56616632 3.84924948 2.55097676 6.4349304 3 11 C2.01 11.33 1.02 11.66 0 12 C-0.66 12.66 -1.32 13.32 -2 14 C-2.66 11.69 -3.32 9.38 -4 7 C-3.01 6.34 -2.02 5.68 -1 5 C-0.27034634 2.43717258 -0.27034634 2.43717258 0 0 Z " fill="#268490" transform="translate(272,169)"/>
<path d="M0 0 C0.99 0.33 1.98 0.66 3 1 C2.9375 3.3125 2.9375 3.3125 2 6 C-1.5625 7.8125 -1.5625 7.8125 -5 9 C-5.66 7.35 -6.32 5.7 -7 4 C-5.824375 3.8453125 -5.824375 3.8453125 -4.625 3.6875 C-1.66954819 3.22404978 -1.66954819 3.22404978 0 0 Z " fill="#167887" transform="translate(368,196)"/>
<path d="M0 0 C-0.34069235 3.15140423 -0.58076841 4.60781561 -2.9375 6.8125 C-5 8 -5 8 -7 8 C-7.33 6.35 -7.66 4.7 -8 3 C-4.93882432 0.37613513 -4.26826873 0 0 0 Z " fill="#157A86" transform="translate(386,170)"/>
<path d="M0 0 C0.91058531 3.07322544 1.08886184 5.80097361 1 9 C-2.64793184 10.27253436 -6.1936543 11.32829194 -10 12 C-5 7 -5 7 -2.75 4.875 C-0.77556277 3.02022825 -0.77556277 3.02022825 0 0 Z " fill="#409099" transform="translate(363,167)"/>
<path d="M0 0 C2.66666667 0 5.33333333 0 8 0 C7.67 0.66 7.34 1.32 7 2 C6.01 2.33 5.02 2.66 4 3 C4.16371094 3.69480469 4.32742188 4.38960937 4.49609375 5.10546875 C5.04095996 8.2352816 5.09738483 11.13798083 5.0625 14.3125 C5.05347656 15.38113281 5.04445313 16.44976562 5.03515625 17.55078125 C5.02355469 18.35902344 5.01195312 19.16726562 5 20 C4.67 20 4.34 20 4 20 C3.93941406 19.21753906 3.87882812 18.43507812 3.81640625 17.62890625 C3.73261719 16.61699219 3.64882813 15.60507813 3.5625 14.5625 C3.48128906 13.55316406 3.40007812 12.54382813 3.31640625 11.50390625 C3.26788532 9.06359221 3.26788532 9.06359221 2 8 C1.95936168 6.33382885 1.957279 4.66611905 2 3 C0.35 3.66 -1.3 4.32 -3 5 C-1.125 1.125 -1.125 1.125 0 0 Z " fill="#B9D4D8" transform="translate(400,159)"/>
<path d="M0 0 C0.66 0.33 1.32 0.66 2 1 C-2.62 5.62 -7.24 10.24 -12 15 C-12.66 14.67 -13.32 14.34 -14 14 C-12.60919892 12.41224451 -11.21211596 10.82999061 -9.8125 9.25 C-8.64654297 7.92742187 -8.64654297 7.92742187 -7.45703125 6.578125 C-5.11544754 4.12113732 -2.69841735 2.05137234 0 0 Z " fill="#D6E5E5" transform="translate(300,95)"/>
<path d="M0 0 C0.66 0 1.32 0 2 0 C2 2.64 2 5.28 2 8 C0.35 8.33 -1.3 8.66 -3 9 C-3.33 7.35 -3.66 5.7 -4 4 C-2.68 3.34 -1.36 2.68 0 2 C0 1.34 0 0.68 0 0 Z " fill="#237D88" transform="translate(410,169)"/>
<path d="M0 0 C2.875 0.25 2.875 0.25 6 1 C7.4375 2.9375 7.4375 2.9375 8 5 C7.67 5.66 7.34 6.32 7 7 C6.34 7 5.68 7 5 7 C5 6.34 5 5.68 5 5 C3.35 5 1.7 5 0 5 C0 3.35 0 1.7 0 0 Z " fill="#1D7A83" transform="translate(366,127)"/>
<path d="M0 0 C0 3 0 3 -1.53125 4.82421875 C-2.50578125 5.74654297 -2.50578125 5.74654297 -3.5 6.6875 C-4.1496875 7.31011719 -4.799375 7.93273437 -5.46875 8.57421875 C-5.9740625 9.04472656 -6.479375 9.51523438 -7 10 C-6.67 10.99 -6.34 11.98 -6 13 C-7.32 13.33 -8.64 13.66 -10 14 C-10.33 12.35 -10.66 10.7 -11 9 C-10.37351562 8.51789063 -9.74703125 8.03578125 -9.1015625 7.5390625 C-7.87566406 6.59160156 -7.87566406 6.59160156 -6.625 5.625 C-5.81289063 4.99851563 -5.00078125 4.37203125 -4.1640625 3.7265625 C-1.95776805 2.03226506 -1.95776805 2.03226506 0 0 Z " fill="#D1E2E4" transform="translate(392,168)"/>
<path d="M0 0 C2.97 0.33 5.94 0.66 9 1 C6 3 6 3 4 3 C4 3.99 4 4.98 4 6 C1.525 5.01 1.525 5.01 -1 4 C-0.67 2.68 -0.34 1.36 0 0 Z " fill="#227F87" transform="translate(305,217)"/>
<path d="M0 0 C1.98 1.65 3.96 3.3 6 5 C5.01 5.495 5.01 5.495 4 6 C1.875 5.0625 1.875 5.0625 0 4 C0 2.68 0 1.36 0 0 Z M-4 4 C-1.69 4.66 0.62 5.32 3 6 C3 7.65 3 9.3 3 11 C1.83040013 10.02433888 0.66438823 9.044375 -0.5 8.0625 C-1.1496875 7.51722656 -1.799375 6.97195312 -2.46875 6.41015625 C-2.9740625 5.94480469 -3.479375 5.47945312 -4 5 C-4 4.67 -4 4.34 -4 4 Z " fill="#3B8E96" transform="translate(291,162)"/>
<path d="M0 0 C0.66 1.32 1.32 2.64 2 4 C2.66 3.67 3.32 3.34 4 3 C3.67 4.65 3.34 6.3 3 8 C2.34 8 1.68 8 1 8 C0.67 8.99 0.34 9.98 0 11 C-0.66 11 -1.32 11 -2 11 C-2.19622241 6.78121808 -1.80230168 3.82989106 0 0 Z " fill="#3E8892" transform="translate(288,128)"/>
<path d="M0 0 C-6.18554618 3.20472868 -12.004149 5.97318874 -19 4 C-13.06147771 0.04098514 -6.91895619 -0.24710558 0 0 Z " fill="#4E959F" transform="translate(336,77)"/>
<path d="M0 0 C0.33 0.99 0.66 1.98 1 3 C2.32 2.34 3.64 1.68 5 1 C5.66 1.99 6.32 2.98 7 4 C5.02 5.32 3.04 6.64 1 8 C1 7.01 1 6.02 1 5 C-0.65 5 -2.3 5 -4 5 C-2.68 3.35 -1.36 1.7 0 0 Z " fill="#328A92" transform="translate(290,95)"/>
<path d="M0 0 C0 0.99 0 1.98 0 3 C0.66 3 1.32 3 2 3 C1.6875 4.9375 1.6875 4.9375 1 7 C0.01 7.33 -0.98 7.66 -2 8 C-1.67 6.02 -1.34 4.04 -1 2 C-1.5775 2.515625 -2.155 3.03125 -2.75 3.5625 C-5 5 -5 5 -7.25 4.6875 C-7.8275 4.460625 -8.405 4.23375 -9 4 C-2.25 0 -2.25 0 0 0 Z " fill="#3B8E95" transform="translate(379,212)"/>
<path d="M0 0 C-0.66 1.32 -1.32 2.64 -2 4 C-3.36125 3.938125 -3.36125 3.938125 -4.75 3.875 C-7.91083821 3.77279857 -7.91083821 3.77279857 -10.125 5.0625 C-12.51724125 6.25862062 -13.50688533 5.7396585 -16 5 C-14.08717875 4.15787744 -12.16957527 3.32661136 -10.25 2.5 C-9.18265625 2.0359375 -8.1153125 1.571875 -7.015625 1.09375 C-4 0 -4 0 0 0 Z " fill="#49919A" transform="translate(324,123)"/>
<path d="M0 0 C1.9375 0.625 1.9375 0.625 4 2 C4.75 5.125 4.75 5.125 5 8 C3.35 7.67 1.7 7.34 0 7 C-0.93423645 3.98968256 -1.04449911 3.13349732 0 0 Z " fill="#157C87" transform="translate(287,159)"/>
<path d="M0 0 C0.2475 0.639375 0.495 1.27875 0.75 1.9375 C1.81562433 4.18741541 1.81562433 4.18741541 4.125 4.75 C4.74375 4.8325 5.3625 4.915 6 5 C6.33 4.34 6.66 3.68 7 3 C7.99 3.33 8.98 3.66 10 4 C9.01 4.495 9.01 4.495 8 5 C8 7.31 8 9.62 8 12 C6.85373678 11.02133662 5.70800212 10.04205413 4.5625 9.0625 C3.92441406 8.51722656 3.28632813 7.97195312 2.62890625 7.41015625 C1.73008851 6.63204305 0.84063472 5.84063472 0 5 C-0.04063832 3.33382885 -0.042721 1.66611905 0 0 Z " fill="#48939F" transform="translate(279,154)"/>
<path d="M0 0 C0.66 1.32 1.32 2.64 2 4 C-1 6 -1 6 -5 6 C-5.33 4.68 -5.66 3.36 -6 2 C-2.25 0 -2.25 0 0 0 Z " fill="#147682" transform="translate(319,81)"/>
<path d="M0 0 C-1.50383297 4.21073233 -4.20664956 5.83237117 -8 8 C-8.99 8 -9.98 8 -11 8 C-11 7.34 -11 6.68 -11 6 C-9.1015625 4.4921875 -9.1015625 4.4921875 -6.625 2.875 C-5.81289063 2.33617187 -5.00078125 1.79734375 -4.1640625 1.2421875 C-2 0 -2 0 0 0 Z " fill="#409096" transform="translate(371,159)"/>
<path d="M0 0 C0.66 0 1.32 0 2 0 C2.33 1.32 2.66 2.64 3 4 C2.34 4 1.68 4 1 4 C1 4.66 1 5.32 1 6 C0.34 6 -0.32 6 -1 6 C-1 6.66 -1 7.32 -1 8 C-0.34 8.33 0.32 8.66 1 9 C0.34 10.32 -0.32 11.64 -1 13 C-1.66 10.03 -2.32 7.06 -3 4 C-2.34 3.67 -1.68 3.34 -1 3 C-0.67 2.01 -0.34 1.02 0 0 Z " fill="#358690" transform="translate(406,118)"/>
<path d="M0 0 C5.75 -0.125 5.75 -0.125 8 1 C8 1.66 8 2.32 8 3 C2.375 4.125 2.375 4.125 -1 3 C-0.67 2.01 -0.34 1.02 0 0 Z " fill="#0A7686" transform="translate(324,203)"/>
<path d="M0 0 C2.50360992 4.62204909 5 9.69950655 5 15 C1.95601671 12.15240273 0.11001599 10.30153445 -0.09765625 5.95703125 C-0.06510417 3.97135417 -0.03255208 1.98567708 0 0 Z " fill="#478F94" transform="translate(292,193)"/>
<path d="M0 0 C0.66 0.99 1.32 1.98 2 3 C2.99 3.66 3.98 4.32 5 5 C3.68 5.99 2.36 6.98 1 8 C0.34 7.01 -0.32 6.02 -1 5 C-1.99 5 -2.98 5 -4 5 C-2.68 3.35 -1.36 1.7 0 0 Z " fill="#398B96" transform="translate(380,184)"/>
<path d="M0 0 C0.99 0.99 1.98 1.98 3 3 C2.34 4.65 1.68 6.3 1 8 C-0.32 8 -1.64 8 -3 8 C-1.125 1.125 -1.125 1.125 0 0 Z " fill="#107280" transform="translate(312,143)"/>
<path d="M0 0 C0 0.66 0 1.32 0 2 C-0.99 2 -1.98 2 -3 2 C-2.67 3.98 -2.34 5.96 -2 8 C-2.99 8.33 -3.98 8.66 -5 9 C-5.12375 8.360625 -5.2475 7.72125 -5.375 7.0625 C-5.684375 6.0415625 -5.684375 6.0415625 -6 5 C-6.66 4.67 -7.32 4.34 -8 4 C-2.25 0 -2.25 0 0 0 Z " fill="#3A8991" transform="translate(305,86)"/>
<path d="M0 0 C1.98 0.66 3.96 1.32 6 2 C6 2.99 6 3.98 6 5 C3.69 5 1.38 5 -1 5 C-1 2 -1 2 0 0 Z " fill="#0E7E8B" transform="translate(366,83)"/>
<path d="M0 0 C2.50298434 2.93828597 3.46930939 5.17902761 4 9 C3.01 9 2.02 9 1 9 C0.01 9.66 -0.98 10.32 -2 11 C-1.125 6.25 -1.125 6.25 0 4 C0 2.68 0 1.36 0 0 Z " fill="#368D94" transform="translate(314,162)"/>
<path d="M0 0 C0.66 0.33 1.32 0.66 2 1 C-1.32307692 6.78461538 -1.32307692 6.78461538 -4.75 7.875 C-5.4925 7.91625 -6.235 7.9575 -7 8 C-6.02133662 6.85373678 -5.04205413 5.70800212 -4.0625 4.5625 C-3.51722656 3.92441406 -2.97195313 3.28632813 -2.41015625 2.62890625 C-1.63204305 1.73008851 -0.84063472 0.84063472 0 0 Z " fill="#46939A" transform="translate(293,138)"/>
<path d="M0 0 C0.99 0 1.98 0 3 0 C1.44499019 3.81684226 -1.03595495 6.19195732 -4 9 C-4 4.94519369 -2.45129908 3.15167025 0 0 Z " fill="#419197" transform="translate(315,134)"/>
<path d="M0 0 C0.5534764 2.07553648 1 3.84365964 1 6 C0.34 6 -0.32 6 -1 6 C-1 7.65 -1 9.3 -1 11 C-2.625 9.3125 -2.625 9.3125 -4 7 C-3.17824769 3.86240027 -2.29744125 2.29744125 0 0 Z " fill="#0B727F" transform="translate(275,119)"/>
<path d="M0 0 C0.33 1.32 0.66 2.64 1 4 C-4.75 3.25 -4.75 3.25 -7 1 C-4 0 -4 0 0 0 Z " fill="#388691" transform="translate(316,222)"/>
<path d="M0 0 C0 1.65 0 3.3 0 5 C-0.99 4.67 -1.98 4.34 -3 4 C-3 4.66 -3 5.32 -3 6 C-3.66 6 -4.32 6 -5 6 C-4.625 3.5625 -4.625 3.5625 -4 1 C-2 0 -2 0 0 0 Z " fill="#0C7784" transform="translate(396,159)"/>
<path d="M0 0 C1.32 0 2.64 0 4 0 C3.67 1.65 3.34 3.3 3 5 C2.34 5 1.68 5 1 5 C1 4.34 1 3.68 1 3 C0.01 2.67 -0.98 2.34 -2 2 C-1.34 1.34 -0.68 0.68 0 0 Z " fill="#127281" transform="translate(380,136)"/>
<path d="M0 0 C1.32 1.32 2.64 2.64 4 4 C3.67 4.66 3.34 5.32 3 6 C2.01 6 1.02 6 0 6 C0 5.34 0 4.68 0 4 C-0.66 3.67 -1.32 3.34 -2 3 C-1.34 2.01 -0.68 1.02 0 0 Z " fill="#0D7684" transform="translate(315,169)"/>
<path d="M0 0 C0.66 0 1.32 0 2 0 C2 1.65 2 3.3 2 5 C0.35 5.33 -1.3 5.66 -3 6 C-3 5.34 -3 4.68 -3 4 C-2.34 4 -1.68 4 -1 4 C-0.67 2.68 -0.34 1.36 0 0 Z " fill="#0A7482" transform="translate(407,140)"/>
<path d="M0 0 C1 3 1 3 0 6 C-0.66 6 -1.32 6 -2 6 C-2 6.66 -2 7.32 -2 8 C-2.66 8 -3.32 8 -4 8 C-2.87548273 5.0280615 -1.77706209 2.66559313 0 0 Z " fill="#599BA6" transform="translate(400,187)"/>
<path d="M0 0 C0.66 0.66 1.32 1.32 2 2 C1.75 4.0625 1.75 4.0625 1 6 C0.01 6.495 0.01 6.495 -1 7 C-1.66 5.35 -2.32 3.7 -3 2 C-2.01 1.34 -1.02 0.68 0 0 Z " fill="#147E88" transform="translate(379,188)"/>
<path d="M0 0 C0.99 0.99 1.98 1.98 3 3 C2.34 3.66 1.68 4.32 1 5 C0.01 5 -0.98 5 -2 5 C-2.33 4.01 -2.66 3.02 -3 2 C-2.01 1.34 -1.02 0.68 0 0 Z " fill="#137481" transform="translate(361,132)"/>
<path d="M0 0 C1.98 0.66 3.96 1.32 6 2 C5.67 2.66 5.34 3.32 5 4 C3.35 4 1.7 4 0 4 C0 2.68 0 1.36 0 0 Z " fill="#077784" transform="translate(316,221)"/>
<path d="M0 0 C1.32 0 2.64 0 4 0 C4.33 0.99 4.66 1.98 5 3 C4.67 3.66 4.34 4.32 4 5 C3.34 5 2.68 5 2 5 C2 4.34 2 3.68 2 3 C1.34 3 0.68 3 0 3 C0 2.01 0 1.02 0 0 Z " fill="#0C7783" transform="translate(369,129)"/>
<path d="M0 0 C1.65 0 3.3 0 5 0 C5.33 1.65 5.66 3.3 6 5 C3.98079663 3.69593116 1.98075027 2.36176581 0 1 C0 0.67 0 0.34 0 0 Z " fill="#388E98" transform="translate(382,97)"/>
</svg>
